<svg xmlns="http://www.w3.org/2000/svg" xmlns:xlink="http://www.w3.org/1999/xlink" width="500" zoomAndPan="magnify" viewBox="0 0 375 374.999991" height="500" preserveAspectRatio="xMidYMid meet" version="1.0"><defs><clipPath id="c87925a78b"><path d="M 57.75 13 L 317.25 13 L 317.25 363.164062 L 57.75 363.164062 Z M 57.75 13 " clip-rule="nonzero"/></clipPath></defs><g clip-path="url(#c87925a78b)"><path fill="#c11f1f" d="M 149.875 251.601562 C 147.210938 256.488281 143.992188 262.597656 149.875 251.601562 Z M 134.78125 172.832031 C 187.722656 145.171875 136.890625 171.722656 134.78125 172.832031 Z M 141.882812 92.179688 C 141.882812 71.847656 154.09375 51.851562 173.628906 45.074219 C 183.839844 41.519531 195.382812 42.1875 205.148438 46.628906 C 213.140625 50.296875 219.910156 56.515625 224.683594 63.960938 C 230.011719 72.292969 232.898438 82.179688 232.898438 92.179688 L 232.898438 121.730469 L 261.753906 121.730469 L 261.753906 92.179688 C 261.753906 76.179688 257.09375 60.40625 248.105469 47.074219 C 239.777344 34.632812 227.792969 24.742188 213.917969 19.078125 C 198.710938 12.855469 181.507812 12.300781 165.859375 17.191406 C 151.652344 21.632812 139 30.742188 129.785156 42.40625 C 120.019531 54.851562 114.136719 70.402344 113.027344 86.179688 C 112.914062 88.179688 112.804688 90.179688 112.804688 92.179688 L 112.804688 121.730469 L 141.660156 121.730469 L 141.660156 92.179688 Z M 317.25 153.835938 L 317.25 340.921875 C 317.25 353.140625 307.375 363.027344 295.164062 363.027344 L 79.839844 363.027344 C 67.628906 363.027344 57.75 353.140625 57.75 340.921875 L 57.75 153.835938 C 57.75 141.617188 67.628906 131.726562 79.839844 131.726562 L 295.164062 131.726562 C 307.375 131.839844 317.25 141.726562 317.25 153.835938 Z M 128.121094 165.835938 C 127.011719 167.722656 127.34375 170.277344 128.898438 171.832031 C 130.453125 173.390625 133.003906 173.722656 134.667969 172.832031 C 136.335938 171.832031 138.222656 171.054688 139.996094 170.277344 C 155.203125 163.277344 171.851562 159.835938 188.613281 160.390625 C 205.371094 160.835938 222.464844 165.167969 237.226562 173.167969 C 238.78125 174.054688 240.222656 174.945312 242 174.945312 C 243.554688 174.945312 244.886719 174.277344 245.773438 172.945312 C 247.328125 170.722656 246.882812 168.167969 244.996094 166.390625 C 243.109375 164.613281 240.667969 163.5 238.335938 162.390625 C 234.894531 160.835938 231.453125 159.28125 227.902344 157.945312 C 211.921875 151.949219 194.605469 149.28125 177.511719 150.503906 C 168.632812 151.058594 159.753906 152.726562 151.207031 155.28125 C 146.988281 156.613281 142.882812 158.058594 138.886719 159.835938 C 136.890625 160.722656 134.890625 161.613281 132.894531 162.613281 C 131.230469 163.390625 129.121094 164.167969 128.121094 165.835938 C 127.011719 167.835938 128.785156 164.722656 128.121094 165.835938 Z M 161.53125 333.144531 C 163.417969 335.03125 166.300781 334.921875 168.300781 333.144531 C 170.742188 331.03125 170.296875 328.03125 168.410156 325.699219 C 165.746094 322.367188 163.195312 318.8125 160.863281 315.257812 C 156.425781 308.589844 152.539062 301.480469 149.542969 294.039062 C 143.769531 279.261719 142.660156 262.265625 151.652344 248.601562 C 158.753906 237.824219 170.851562 231.160156 183.617188 229.824219 C 197.933594 228.382812 213.140625 233.601562 221.910156 245.378906 C 224.242188 248.488281 226.015625 251.933594 227.460938 255.488281 C 228.234375 257.488281 228.789062 259.488281 229.347656 261.488281 C 229.789062 263.375 229.902344 265.375 230.34375 267.265625 C 231.011719 269.820312 233.5625 271.261719 236.117188 270.820312 C 238.890625 270.261719 240.335938 267.820312 240.113281 265.042969 C 240 263.152344 239.445312 261.152344 239.003906 259.375 C 238.449219 257.375 237.890625 255.265625 237.117188 253.265625 C 235.894531 249.820312 234.230469 246.378906 232.34375 243.269531 C 228.789062 237.378906 223.90625 232.269531 218.246094 228.382812 C 206.371094 220.269531 190.832031 217.9375 176.847656 220.828125 C 162.75 223.714844 150.097656 232.269531 142.550781 244.601562 C 134.335938 258.042969 133.449219 274.152344 137.554688 289.148438 C 139.773438 297.257812 143.214844 304.925781 147.210938 312.144531 C 149.320312 315.921875 151.652344 319.589844 154.09375 323.144531 C 155.3125 324.921875 156.535156 326.699219 157.867188 328.367188 C 158.976562 329.921875 160.085938 331.699219 161.53125 333.144531 C 165.304688 336.808594 160.417969 332.03125 161.53125 333.144531 Z M 245.996094 317.257812 C 247.214844 316.921875 248.214844 316.144531 248.878906 315.144531 C 250.210938 313.035156 249.878906 310.148438 247.882812 308.480469 C 246.550781 307.480469 245.105469 307.371094 243.554688 307.371094 C 241.886719 307.371094 240.335938 307.371094 238.667969 307.257812 C 232.34375 306.925781 225.90625 306.148438 219.910156 304.257812 C 213.808594 302.257812 208.035156 299.148438 203.375 294.59375 C 198.710938 290.039062 195.269531 284.371094 193.273438 278.152344 C 192.71875 276.375 192.273438 274.597656 191.941406 272.707031 C 191.609375 271.042969 191.71875 269.265625 191.277344 267.597656 C 190.609375 265.042969 188.058594 263.488281 185.503906 264.042969 C 182.175781 264.707031 181.285156 267.820312 181.621094 270.820312 C 181.953125 274.597656 182.839844 278.261719 183.949219 281.707031 C 187.722656 292.925781 195.492188 302.480469 205.59375 308.589844 C 211.476562 312.035156 217.914062 314.367188 224.574219 315.589844 C 228.234375 316.257812 231.898438 316.8125 235.5625 317.035156 C 237.449219 317.144531 239.222656 317.144531 241.109375 317.257812 C 242.664062 317.589844 244.441406 317.699219 245.996094 317.257812 C 249.324219 316.367188 244.109375 317.8125 245.996094 317.257812 Z M 261.976562 271.042969 C 263.085938 265.265625 262.644531 259.265625 261.3125 253.488281 C 256.984375 234.046875 244.441406 216.605469 227.460938 206.273438 C 229.566406 207.605469 231.675781 208.9375 233.898438 210.160156 C 231.566406 208.828125 229.234375 207.382812 226.902344 205.941406 C 227.125 206.050781 227.238281 206.160156 227.460938 206.273438 C 220.6875 202.164062 213.363281 199.164062 205.703125 197.273438 C 190.277344 193.386719 173.851562 194.273438 158.976562 199.71875 C 144.660156 204.941406 131.5625 214.273438 122.792969 226.9375 C 113.914062 239.824219 110.027344 255.488281 110.25 271.152344 C 110.363281 280.152344 111.804688 289.261719 114.246094 297.925781 C 115.136719 300.925781 115.800781 305.589844 119.351562 306.589844 C 121.90625 307.257812 124.792969 305.703125 125.566406 303.035156 C 126.011719 301.257812 125.234375 299.480469 124.679688 297.816406 C 123.902344 295.703125 123.347656 293.59375 122.902344 291.371094 C 121.90625 287.039062 121.128906 282.59375 120.683594 278.152344 C 119.90625 270.261719 120.128906 262.375 121.792969 254.597656 C 123.347656 247.15625 126.121094 240.046875 130.339844 233.714844 C 134.558594 227.382812 140.109375 221.9375 146.324219 217.492188 C 158.753906 208.828125 173.960938 204.382812 189.054688 204.941406 C 204.152344 205.496094 219.246094 211.050781 230.789062 220.9375 C 236.78125 226.160156 241.886719 232.492188 245.660156 239.492188 C 249.546875 246.710938 252.542969 254.933594 252.652344 263.152344 C 252.765625 270.042969 250.324219 276.707031 244.664062 280.816406 C 239.222656 284.816406 231.566406 286.039062 225.460938 282.59375 C 218.691406 278.707031 216.914062 270.929688 215.140625 263.820312 C 214.25 260.265625 213.140625 256.710938 211.253906 253.488281 C 209.476562 250.488281 207.035156 247.824219 204.371094 245.601562 C 198.933594 241.269531 191.941406 239.15625 184.949219 239.710938 C 178.398438 240.269531 172.183594 243.269531 167.414062 247.824219 C 162.304688 252.710938 158.976562 259.265625 157.867188 266.265625 C 156.644531 274.039062 158.199219 282.039062 161.085938 289.371094 C 166.746094 304.148438 177.070312 317.589844 190.164062 326.476562 C 193.605469 328.8125 197.269531 330.921875 201.152344 332.699219 C 203.261719 333.585938 205.371094 334.367188 207.480469 335.144531 C 209.257812 335.699219 211.363281 336.476562 213.25 335.808594 C 215.914062 334.921875 217.136719 332.03125 216.359375 329.476562 C 215.25 326.035156 211.03125 325.699219 208.144531 324.699219 C 200.375 322.144531 193.273438 317.035156 187.5 311.367188 C 182.394531 306.371094 178.066406 300.59375 174.625 294.371094 C 168.410156 283.371094 163.75 268.152344 172.628906 257.15625 C 176.847656 251.933594 183.507812 248.933594 190.277344 249.933594 C 197.492188 250.933594 203.152344 256.710938 205.148438 263.597656 C 205.703125 265.597656 206.039062 267.707031 206.480469 269.820312 C 207.035156 272.042969 207.703125 274.152344 208.480469 276.261719 C 209.921875 279.816406 211.808594 283.152344 214.25 285.929688 C 219.355469 291.925781 227.015625 295.039062 234.785156 294.59375 C 247.769531 294.261719 259.535156 284.152344 261.976562 271.042969 C 263.640625 262.488281 259.3125 285.148438 261.976562 271.042969 Z M 265.085938 217.9375 C 266.527344 215.382812 265.195312 212.9375 263.640625 210.828125 C 261.867188 208.496094 259.980469 206.382812 258.09375 204.273438 C 244.441406 189.832031 226.347656 179.945312 206.925781 175.722656 L 206.59375 175.609375 C 197.601562 173.722656 188.277344 172.945312 179.066406 173.5 C 163.527344 174.390625 148.210938 178.945312 134.78125 186.941406 C 128.453125 190.71875 122.570312 195.164062 117.355469 200.386719 C 114.46875 203.273438 111.917969 206.382812 109.363281 209.496094 C 108.363281 210.828125 107.253906 212.160156 107.144531 213.9375 C 107.03125 215.605469 107.808594 217.382812 109.253906 218.269531 C 109.03125 218.160156 108.808594 217.9375 108.585938 217.828125 C 109.03125 218.160156 109.472656 218.382812 109.917969 218.714844 C 109.695312 218.605469 109.472656 218.382812 109.253906 218.269531 C 110.585938 219.269531 112.359375 219.492188 113.914062 218.828125 C 115.578125 218.160156 116.578125 216.714844 117.6875 215.273438 C 120.128906 212.160156 122.683594 209.160156 125.566406 206.382812 C 135.558594 196.71875 148.097656 190.054688 161.417969 186.386719 C 175.515625 182.5 190.386719 182.277344 204.707031 185.277344 L 204.925781 185.386719 C 210.253906 186.5 215.472656 188.164062 220.578125 190.273438 C 229.566406 193.941406 238.003906 199.164062 245.328125 205.605469 C 248.878906 208.71875 252.433594 212.160156 255.207031 216.050781 C 256.429688 217.714844 257.539062 219.605469 259.648438 220.160156 C 261.535156 220.9375 263.976562 219.9375 265.085938 217.9375 C 266.085938 216.160156 263.976562 219.9375 265.085938 217.9375 Z M 227.460938 206.382812 C 227.460938 206.382812 227.347656 206.382812 227.460938 206.382812 Z M 149.875 251.601562 C 151.875 247.710938 153.425781 244.710938 149.875 251.601562 Z M 149.875 251.601562 " fill-opacity="1" fill-rule="nonzero"/></g></svg>